<svg width="10" height="10" viewBox="0 0 10 10" fill="none" xmlns="http://www.w3.org/2000/svg">
<path fill-rule="evenodd" clip-rule="evenodd" d="M8.46967 9.52935C8.76256 9.82225 9.23744 9.82225 9.53033 9.52935C9.82322 9.23646 9.82322 8.76159 9.53033 8.46869L6.0613 4.99966L9.53052 1.53044C9.82341 1.23755 9.82341 0.762671 9.53052 0.469778C9.23762 0.176885 8.76275 0.176885 8.46986 0.469778L5.00064 3.939L1.53033 0.468693C1.23744 0.1758 0.762563 0.1758 0.46967 0.468693C0.176777 0.761586 0.176777 1.23646 0.46967 1.52935L3.93998 4.99966L0.469856 8.46978C0.176963 8.76267 0.176963 9.23755 0.469856 9.53044C0.762749 9.82333 1.23762 9.82333 1.53052 9.53044L5.00064 6.06032L8.46967 9.52935Z" fill="#7F7F7F"/>
</svg>
