<svg width="24" height="24" viewBox="0 0 24 24" fill="none" xmlns="http://www.w3.org/2000/svg">
<path fill-rule="evenodd" clip-rule="evenodd" d="M21 12C21 14.3869 20.0518 16.6761 18.364 18.364C16.6761 20.0518 14.3869 21 12 21C9.61305 21 7.32387 20.0518 5.63604 18.364C3.94821 16.6761 3 14.3869 3 12C3 9.61305 3.94821 7.32387 5.63604 5.63604C7.32387 3.94821 9.61305 3 12 3C14.3869 3 16.6761 3.94821 18.364 5.63604C20.0518 7.32387 21 9.61305 21 12ZM14.25 8.625C14.25 9.22174 14.0129 9.79403 13.591 10.216C13.169 10.6379 12.5967 10.875 12 10.875C11.4033 10.875 10.831 10.6379 10.409 10.216C9.98705 9.79403 9.75 9.22174 9.75 8.625C9.75 8.02826 9.98705 7.45597 10.409 7.03401C10.831 6.61205 11.4033 6.375 12 6.375C12.5967 6.375 13.169 6.61205 13.591 7.03401C14.0129 7.45597 14.25 8.02826 14.25 8.625ZM12 13.125C10.9229 13.1248 9.86844 13.4338 8.96184 14.0153C8.05525 14.5969 7.33467 15.4264 6.88575 16.4055C7.51876 17.1419 8.30356 17.7327 9.18631 18.1374C10.0691 18.5421 11.0289 18.7511 12 18.75C12.9711 18.7511 13.9309 18.5421 14.8137 18.1374C15.6964 17.7327 16.4812 17.1419 17.1142 16.4055C16.6653 15.4264 15.9448 14.5969 15.0382 14.0153C14.1316 13.4338 13.0771 13.1248 12 13.125Z" fill="#0079D1"/>
</svg>
